<svg width="42" height="34" viewBox="0 0 42 34" fill="none" xmlns="http://www.w3.org/2000/svg">
<path d="M28 0.602783C25.4217 0.602783 23.3333 2.69112 23.3333 5.26945V14.6028C23.3333 17.1811 25.4217 19.2694 28 19.2694H35.0228L27.3255 29.6099C26.1822 31.1476 27.2782 33.3333 29.1986 33.3333C29.9359 33.3333 30.6261 32.9871 31.0671 32.3944L41.0794 18.9459C41.6768 18.1409 42 17.1647 42 16.1614V5.26945C42 2.69112 39.9117 0.602783 37.3333 0.602783H28ZM4.66667 0.666585C2.08833 0.666585 0 2.75492 0 5.33325V14.6666C0 17.2449 2.08833 19.3333 4.66667 19.3333H11.6895L4.03776 29.6054C2.89443 31.1454 3.99047 33.3333 5.91081 33.3333C6.64814 33.3333 7.34285 32.9871 7.78385 32.3944L17.7461 19.0097C18.3434 18.2047 18.6667 17.2308 18.6667 16.2252V5.33325C18.6667 2.75492 16.5783 0.666585 14 0.666585H4.66667Z" fill="#1D0601" fill-opacity="0.2"/>
</svg>
